# File created by Blade
# Date/Time:  Wed Apr 08 14:55:03 2015
# Frame Rate: 120.000 fps
#------------------------------------------------------
:FULLY-SPECIFIED
:DEGREES
770
root 6.372268 32.303342 -3.497124 15.724784 35.618352 1.175509
Spine -9.978905 -12.729879 -3.627470
Head -0.088755 -24.117109 10.746262
LeftShoulder -18.330684 47.635925 8.809951
LeftArm 55.838144 12.005737 -65.444030
LeftForeArm 10.985644 -0.000000 121.503510
LeftHand -0.340730 0.000000 -7.041751
LeftHandThumb1 -26.253704 0.000000 33.147579
RightShoulder -7.034590 -11.311972 -16.591093
RightArm 12.212019 -29.256990 81.142901
RightForeArm 7.983322 -0.000000 113.416154
RightHand 13.118585 -0.000000 -12.601924
RightHandThumb1 -24.326973 -0.000000 -32.862282
LeftUpLeg -16.846946 -11.433408 0.062693
LeftLeg 14.799788 -0.000000 -0.000000
LeftFoot -17.118290 9.635758 -17.016419
LeftToeBase -8.041308 -0.000000 0.000000
RightUpLeg -34.553723 -2.975064 -13.529904
RightLeg 17.000509 -0.000000 -0.000000
RightFoot 6.906070 -17.400797 3.913784
RightToeBase -13.816963 -0.000000 0.000000
771
root 6.387463 32.314483 -3.658461 15.531686 34.733411 1.204146
Spine -9.676519 -12.597029 -3.691561
Head -0.248301 -23.579882 10.702359
LeftShoulder -18.292477 47.777397 8.902632
LeftArm 55.851138 12.145701 -65.355314
LeftForeArm 11.879639 -0.000000 121.231005
LeftHand -0.876722 -0.000000 -8.444996
LeftHandThumb1 -26.253704 0.000000 33.147579
RightShoulder -6.986540 -11.453043 -16.485319
RightArm 12.141729 -29.312213 81.706507
RightForeArm 7.918639 -0.000000 113.364883
RightHand 13.225195 -0.000000 -13.100023
RightHandThumb1 -24.326973 -0.000000 -32.862282
LeftUpLeg -16.685140 -11.284275 -0.292981
LeftLeg 14.536643 -0.000000 -0.000000
LeftFoot -17.033174 10.382143 -17.014752
LeftToeBase -7.883418 -0.000000 0.000000
RightUpLeg -34.568567 -3.404985 -12.810186
RightLeg 18.378998 -0.000000 -0.000000
RightFoot 4.575999 -18.496419 3.683987
RightToeBase -13.466185 -0.000000 0.000000
772
root 6.398061 32.327199 -3.815590 15.302379 33.818523 1.218870
Spine -9.355108 -12.455857 -3.755321
Head -0.376259 -23.008983 10.610304
LeftShoulder -18.324791 47.913526 8.955929
LeftArm 55.835827 12.276420 -65.297974
LeftForeArm 12.672955 0.000000 120.967760
LeftHand -1.454158 0.000000 -10.011938
LeftHandThumb1 -26.253704 0.000000 33.147579
RightShoulder -6.884823 -11.615281 -16.397592
RightArm 12.180923 -29.440144 82.170558
RightForeArm 7.835414 -0.000000 113.272937
RightHand 13.227608 -0.000000 -12.681914
RightHandThumb1 -24.326973 -0.000000 -32.862282
LeftUpLeg -16.516382 -10.961394 -0.654125
LeftLeg 14.310095 -0.000000 -0.000000
LeftFoot -16.886884 10.997495 -16.963187
LeftToeBase -7.818555 -0.000000 0.000000
RightUpLeg -34.594862 -3.815711 -12.068114
RightLeg 20.035598 -0.000000 -0.000000
RightFoot 2.290352 -19.693531 3.851380
RightToeBase -13.223929 -0.000000 0.000000
773
root 6.408059 32.343014 -3.968101 15.064594 32.904635 1.169971
Spine -9.079669 -12.281775 -3.744999
Head -0.473984 -22.453665 10.491637
LeftShoulder -18.319396 48.036551 9.006439
LeftArm 55.807892 12.578003 -65.120298
LeftForeArm 14.416415 -0.000000 120.797010
LeftHand -2.464494 0.000000 -10.783076
LeftHandThumb1 -26.253704 0.000000 33.147579
RightShoulder -6.775285 -11.735349 -16.392674
RightArm 12.144773 -29.609098 82.691893
RightForeArm 7.670959 -0.000000 113.156001
RightHand 13.273080 -0.000000 -12.607454
RightHandThumb1 -24.326973 -0.000000 -32.862282
LeftUpLeg -16.391869 -10.542211 -0.949993
LeftLeg 14.123239 -0.000000 -0.000000
LeftFoot -16.679612 11.493500 -16.891550
LeftToeBase -7.984998 -0.000000 0.000000
RightUpLeg -34.562320 -4.143055 -11.301338
RightLeg 21.720127 -0.000000 -0.000000
RightFoot 0.176663 -20.793998 4.222239
RightToeBase -13.877669 -0.000000 0.000000
